<?xml version="1.0" standalone="no"?>
<!DOCTYPE svg PUBLIC "-//W3C//DTD SVG 20010904//EN"
 "http://www.w3.org/TR/2001/REC-SVG-20010904/DTD/svg10.dtd">
<svg version="1.0" xmlns="http://www.w3.org/2000/svg"
 width="211.000000pt" height="210.000000pt" viewBox="0 0 211.000000 210.000000"
 preserveAspectRatio="xMidYMid meet">

<g transform="translate(0.000000,210.000000) scale(0.100000,-0.100000)"
fill="#000000" stroke="none">
<path d="M9 2069 c-8 -16 -8 -28 0 -45 l11 -24 228 0 c126 0 231 -2 234 -5 3
-3 -104 -444 -238 -981 -203 -808 -242 -978 -233 -996 l11 -21 736 6 c404 4
865 7 1023 7 278 0 289 1 299 20 8 16 -38 216 -225 977 -130 527 -238 966
-241 976 -5 16 10 17 208 18 117 1 227 4 243 8 26 5 30 10 30 41 l0 35 -279 3
c-289 2 -306 0 -306 -39 0 -11 24 -119 54 -242 30 -122 56 -231 58 -242 3 -18
-3 -20 -74 -21 -42 -1 -81 -5 -87 -8 -6 -4 -19 -2 -29 3 -21 11 -87 8 -147 -8
-22 -6 -59 -11 -83 -11 -23 0 -51 -5 -62 -12 -16 -10 -23 -9 -40 7 -17 16 -25
17 -40 7 -16 -10 -21 -9 -31 9 -8 16 -17 20 -37 14 -15 -3 -42 -6 -61 -5 -18
0 -39 -4 -47 -11 -11 -9 -15 -8 -20 4 -9 24 -34 29 -60 12 -14 -9 -25 -11 -29
-5 -10 16 -41 11 -59 -9 -15 -17 -21 -18 -37 -8 -17 10 -23 8 -39 -13 l-19
-25 -23 23 c-30 28 -42 28 -60 0 -15 -22 -15 -22 -29 10 -8 18 -19 32 -25 32
-7 0 10 88 48 237 32 130 58 248 56 262 -4 36 -22 38 -315 40 -248 1 -253 1
-264 -20z"/>
</g>
</svg>
